<svg width="18" height="18" viewBox="0 0 18 18" fill="none" xmlns="http://www.w3.org/2000/svg">
<g id="fi-rr-share" clip-path="url(#clip0_1707_11097)">
<path id="Vector" d="M14.2184 10.8227C13.6868 10.8231 13.1632 10.9529 12.693 11.2008C12.2227 11.4488 11.8198 11.8074 11.5191 12.2458L6.94244 10.1793C7.26751 9.39437 7.26877 8.51269 6.94596 7.72681L11.5163 5.64978C11.962 6.29438 12.6239 6.75788 13.3821 6.95622C14.1402 7.15456 14.9444 7.0746 15.6486 6.73084C16.3529 6.38708 16.9106 5.80229 17.2206 5.08255C17.5306 4.36281 17.5724 3.55579 17.3384 2.80787C17.1044 2.05996 16.61 1.42069 15.9451 1.00603C15.2801 0.591371 14.4885 0.42878 13.7139 0.547751C12.9393 0.666722 12.233 1.05938 11.7232 1.65449C11.2133 2.2496 10.9336 3.00775 10.9348 3.79142C10.9378 3.97691 10.9566 4.1618 10.991 4.34408L6.13244 6.55189C5.66581 6.1147 5.08163 5.82334 4.45168 5.7136C3.82172 5.60386 3.17343 5.68052 2.58645 5.93417C1.99947 6.18781 1.49936 6.6074 1.14757 7.14137C0.795771 7.67534 0.607614 8.30044 0.606209 8.93988C0.604804 9.57932 0.790213 10.2052 1.13966 10.7408C1.4891 11.2763 1.98736 11.698 2.57322 11.9543C3.15908 12.2105 3.80703 12.29 4.43746 12.183C5.06789 12.0761 5.65334 11.7873 6.1219 11.3521L10.9931 13.5515C10.9593 13.7336 10.9407 13.9182 10.9376 14.1035C10.9375 14.7525 11.1298 15.3871 11.4903 15.9268C11.8509 16.4666 12.3633 16.8873 12.963 17.1357C13.5626 17.3842 14.2225 17.4492 14.8591 17.3226C15.4957 17.196 16.0805 16.8835 16.5394 16.4245C16.9984 15.9656 17.311 15.3808 17.4376 14.7442C17.5641 14.1076 17.4991 13.4477 17.2506 12.8481C17.0022 12.2484 16.5815 11.7359 16.0417 11.3754C15.502 11.0149 14.8675 10.8225 14.2184 10.8227ZM14.2184 1.91619C14.5893 1.91605 14.9519 2.02591 15.2604 2.23188C15.5689 2.43785 15.8093 2.73067 15.9514 3.07332C16.0934 3.41596 16.1307 3.79303 16.0584 4.15683C15.9861 4.52064 15.8076 4.85484 15.5453 5.11717C15.2831 5.37949 14.949 5.55816 14.5852 5.63058C14.2214 5.70299 13.8443 5.66589 13.5016 5.52398C13.1589 5.38207 12.866 5.14172 12.6599 4.83332C12.4538 4.52493 12.3439 4.16234 12.3439 3.79142C12.3442 3.29432 12.5418 2.81767 12.8933 2.46609C13.2447 2.11452 13.7213 1.91675 14.2184 1.91619ZM3.90635 10.8227C3.53543 10.8228 3.17281 10.713 2.86433 10.507C2.55586 10.301 2.3154 10.0082 2.17336 9.66555C2.03132 9.32291 1.99408 8.94584 2.06636 8.58203C2.13864 8.21823 2.31718 7.88402 2.57941 7.6217C2.84163 7.35937 3.17577 7.1807 3.53955 7.10829C3.90333 7.03588 4.28041 7.07297 4.62311 7.21488C4.9658 7.35679 5.25871 7.59715 5.4648 7.90554C5.67088 8.21394 5.78088 8.57652 5.78088 8.94744C5.78032 9.44449 5.58267 9.92103 5.23127 10.2726C4.87987 10.6241 4.4034 10.8219 3.90635 10.8227ZM14.2184 15.9787C13.8475 15.9787 13.4849 15.8687 13.1766 15.6627C12.8682 15.4566 12.6278 15.1637 12.4859 14.8211C12.344 14.4784 12.3068 14.1014 12.3792 13.7376C12.4515 13.3739 12.6301 13.0397 12.8924 12.7775C13.1546 12.5152 13.4888 12.3366 13.8525 12.2643C14.2163 12.1919 14.5933 12.229 14.936 12.371C15.2787 12.5129 15.5715 12.7533 15.7776 13.0616C15.9836 13.37 16.0936 13.7326 16.0936 14.1035C16.0932 14.6007 15.8956 15.0774 15.544 15.429C15.1924 15.7806 14.7156 15.9783 14.2184 15.9787Z" fill="#2E2E5B"/>
</g>
<defs>
<clipPath id="clip0_1707_11097">
<rect width="16.875" height="16.875" fill="white" transform="translate(0.625 0.509766)"/>
</clipPath>
</defs>
</svg>
