<svg width="49" height="49" viewBox="0 0 49 49" fill="none" xmlns="http://www.w3.org/2000/svg">
<g id="MyChambers_dedault">
<path id="Vector 1" d="M15.5 14.5H33.5C34.6046 14.5 35.5 15.3954 35.5 16.5V27.5625C35.5 28.6671 34.6046 29.5625 33.5 29.5625H24.5H18.7307C17.5743 29.5625 16.4537 29.9633 15.5596 30.6968L13.5 32.3863V30.5625V16.5C13.5 15.3954 14.3954 14.5 15.5 14.5Z" stroke="#B0B0CA" stroke-width="2" stroke-linejoin="round"/>
<path id="Star 1" d="M24.4224 17.8106C24.4504 17.7147 24.5863 17.7147 24.6143 17.8106L25.2293 19.9133C25.4207 20.5681 25.9327 21.0801 26.5875 21.2715L28.6902 21.8865C28.7861 21.9145 28.7861 22.0504 28.6902 22.0784L26.5875 22.6933C25.9327 22.8848 25.4207 23.3968 25.2293 24.0516L24.6143 26.1542C24.5863 26.2502 24.4504 26.2502 24.4224 26.1542L23.8075 24.0516C23.616 23.3968 23.104 22.8848 22.4492 22.6933L20.3466 22.0784C20.2506 22.0504 20.2506 21.9145 20.3466 21.8865L22.4492 21.2715C23.104 21.0801 23.616 20.5681 23.8075 19.9133L24.4224 17.8106Z" fill="#B0B0CA"/>
</g>
</svg>
