<svg width="170" height="38" viewBox="0 0 170 38" fill="none" xmlns="http://www.w3.org/2000/svg">
<path d="M10.1034 27.8304C4.625 27.8304 1.15625 23.8523 1.15625 17.5618C1.15625 11.3263 4.66629 7.30692 10.1034 7.30692C14.4256 7.30692 17.7154 9.93601 18.3486 13.9003H15.8434C15.2102 11.2987 12.939 9.59189 10.1034 9.59189C6.22173 9.59189 3.70275 12.7303 3.70275 17.5618C3.70275 22.4345 6.1942 25.5454 10.1172 25.5454C13.0353 25.5454 15.1276 24.1414 15.8434 21.7188H18.3486C17.4401 25.6417 14.4944 27.8304 10.1034 27.8304ZM26.8415 27.7478C22.8772 27.7478 20.2068 24.8984 20.2068 20.3423C20.2068 15.7723 22.8772 12.9368 26.8415 12.9368C30.792 12.9368 33.4624 15.7723 33.4624 20.3423C33.4624 24.8984 30.792 27.7478 26.8415 27.7478ZM26.8415 25.6417C29.3743 25.6417 31.026 23.7147 31.026 20.3423C31.026 16.9699 29.3743 15.0428 26.8415 15.0428C24.3088 15.0428 22.6432 16.9699 22.6432 20.3423C22.6432 23.7147 24.3088 25.6417 26.8415 25.6417ZM35.885 27.5V13.1845H38.1425V15.4695H38.1975C38.872 13.9554 40.3311 12.9368 42.2582 12.9368C44.2128 12.9368 45.6581 13.9278 46.2775 15.6622H46.3326C47.1309 13.9554 48.8103 12.9368 50.8199 12.9368C53.6555 12.9368 55.4862 14.7813 55.4862 17.6168V27.5H53.0911V18.1674C53.0911 16.2128 52.0037 15.0565 50.1179 15.0565C48.2184 15.0565 46.8832 16.4606 46.8832 18.4014V27.5H44.4881V17.9059C44.4881 16.1853 43.3318 15.0565 41.5562 15.0565C39.6566 15.0565 38.2801 16.5432 38.2801 18.5253V27.5H35.885ZM58.542 27.5V13.1845H60.7995V15.4695H60.8545C61.529 13.9554 62.9881 12.9368 64.9152 12.9368C66.8698 12.9368 68.3151 13.9278 68.9345 15.6622H68.9896C69.7879 13.9554 71.4673 12.9368 73.4769 12.9368C76.3125 12.9368 78.1432 14.7813 78.1432 17.6168V27.5H75.7481V18.1674C75.7481 16.2128 74.6607 15.0565 72.7749 15.0565C70.8754 15.0565 69.5402 16.4606 69.5402 18.4014V27.5H67.1451V17.9059C67.1451 16.1853 65.9888 15.0565 64.2132 15.0565C62.3136 15.0565 60.9371 16.5432 60.9371 18.5253V27.5H58.542ZM92.9542 13.1845V27.5H90.683V25.1737H90.628C89.7745 26.8255 88.2879 27.7478 86.0855 27.7478C82.9609 27.7478 81.1302 25.7243 81.1302 22.4758V13.1845H83.5253V22.0491C83.5253 24.3754 84.6127 25.628 86.8289 25.628C89.1551 25.628 90.5591 24.0313 90.5591 21.5949V13.1845H92.9542ZM96.0651 27.5V13.1845H98.3225V15.4695H98.3776C99.176 13.9278 100.704 12.9368 102.92 12.9368C106.058 12.9368 107.875 14.9602 107.875 18.2087V27.5H105.48V18.6354C105.48 16.3229 104.393 15.0565 102.19 15.0565C99.933 15.0565 98.4602 16.6533 98.4602 19.0759V27.5H96.0651ZM111.055 27.5V13.1845H113.45V27.5H111.055ZM112.253 10.7757C111.44 10.7757 110.766 10.1012 110.766 9.28907C110.766 8.46317 111.44 7.80246 112.253 7.80246C113.078 7.80246 113.753 8.46317 113.753 9.28907C113.753 10.1012 113.078 10.7757 112.253 10.7757ZM117.456 9.72954H119.851V13.1845H122.631V15.1529H119.851V23.6596C119.851 24.9673 120.401 25.5592 121.626 25.5592C121.902 25.5592 122.452 25.5179 122.618 25.4903V27.5C122.328 27.5688 121.668 27.6101 121.103 27.6101C118.474 27.6101 117.456 26.5365 117.456 23.7835V15.1529H115.322V13.1845H117.456V9.72954ZM126.375 32.8545C126.086 32.8545 125.605 32.827 125.343 32.7719V30.7623C125.605 30.8173 125.976 30.8311 126.279 30.8311C127.614 30.8311 128.357 30.1842 128.908 28.5186L129.238 27.5138L123.953 13.1845H126.513L130.477 25.1049H130.519L134.483 13.1845H137.002L131.372 28.5048C130.147 31.8497 128.963 32.8545 126.375 32.8545Z" fill="url(#paint0_linear_1707_10815)"/>
<defs>
<linearGradient id="paint0_linear_1707_10815" x1="-14.4814" y1="25.0233" x2="189.863" y2="17.2294" gradientUnits="userSpaceOnUse">
<stop stop-color="#7A7AFF"/>
<stop offset="1" stop-color="#F84950" stop-opacity="0.7"/>
</linearGradient>
</defs>
</svg>
