<svg width="33" height="33" viewBox="0 0 33 33" fill="none" xmlns="http://www.w3.org/2000/svg">
<path d="M13.75 26.5H7.75V13.5L16.75 7.5L25.75 13.5V26.5H19.75L18.75 19.5H14.75L13.75 26.5Z" fill="#B0B0CA"/>
<mask id="mask0_3779_1775" style="mask-type:alpha" maskUnits="userSpaceOnUse" x="0" y="0" width="33" height="33">
<rect x="0.75" y="0.5" width="32" height="32" fill="#D9D9D9"/>
</mask>
<g mask="url(#mask0_3779_1775)">
<path d="M8.74997 24.8342C8.74997 25.3864 9.19768 25.8342 9.74997 25.8342H12.2115C12.7638 25.8342 13.2115 25.3864 13.2115 24.8342V21.4495C13.2115 19.4953 14.7957 17.9111 16.75 17.9111C18.7042 17.9111 20.2884 19.4953 20.2884 21.4495V24.8342C20.2884 25.3864 20.7361 25.8342 21.2884 25.8342H23.75C24.3023 25.8342 24.75 25.3864 24.75 24.8342V15.3303C24.75 14.3882 24.3074 13.5008 23.5549 12.934L18.5549 9.16799C17.4862 8.36307 16.0137 8.36307 14.9451 9.16799L9.94505 12.934C9.19252 13.5008 8.74997 14.3882 8.74997 15.3303V24.8342ZM9.75 27.8341C8.09315 27.8341 6.75 26.491 6.75 24.8341V14.3311C6.75 13.3886 7.19296 12.5008 7.94607 11.9341L14.946 6.66616C16.0143 5.86223 17.4856 5.86223 18.5539 6.66616L25.5539 11.9341C26.307 12.5008 26.7499 13.3886 26.7499 14.3311V24.8341C26.7499 26.491 25.4068 27.8341 23.7499 27.8341H20.2692C19.1753 27.8341 18.2884 26.9473 18.2884 25.8534V21.4495C18.2884 20.5998 17.5996 19.911 16.75 19.911C15.9003 19.911 15.2115 20.5998 15.2115 21.4495V25.8534C15.2115 26.9473 14.3247 27.8341 13.2307 27.8341H9.75Z" fill="#B0B0CA"/>
</g>
</svg>
