<svg width="25" height="25" viewBox="0 0 25 25" fill="none" xmlns="http://www.w3.org/2000/svg">
<path d="M24.498 12.498V12.492C24.498 8.94132 22.9521 5.75258 20.4973 3.55977L20.4853 3.54977C20.455 3.51708 20.4212 3.4879 20.3843 3.46277L20.3823 3.46177C18.2021 1.54746 15.3984 0.494369 12.497 0.500023C9.46525 0.500023 6.69748 1.62593 4.58766 3.48377L4.60066 3.47277C4.57523 3.49206 4.55178 3.51383 4.53067 3.53777C3.2623 4.66087 2.24705 6.04165 1.55217 7.58672C0.857296 9.13179 0.498653 10.8069 0.500004 12.501C0.500004 16.0507 2.04387 19.2395 4.49667 21.4333L4.50867 21.4433C4.54043 21.4793 4.57596 21.5118 4.61466 21.5403L4.61666 21.5413C6.79631 23.4527 9.59793 24.5043 12.497 24.499C15.4096 24.5035 18.2232 23.4422 20.4073 21.5153L20.3943 21.5263C21.6847 20.4044 22.719 19.0185 23.4273 17.4623C24.1357 15.9061 24.5015 14.2159 24.5 12.506V12.499L24.498 12.498ZM20.0364 20.3024C19.442 19.8216 18.8028 19.399 18.1275 19.0405L18.0625 19.0085C18.6755 17.2416 19.0445 15.2048 19.0794 13.086V13.07H23.3401C23.1964 15.8111 22.0166 18.3953 20.0394 20.2994L20.0364 20.3024ZM13.071 18.7975C14.3538 18.8665 15.5527 19.1485 16.6587 19.6074L16.5867 19.5814C15.7007 21.6013 14.4538 22.9891 13.071 23.2941V18.7975ZM13.071 17.6536V13.07H17.9385C17.8999 14.9681 17.5708 16.8491 16.9626 18.6475L17.0016 18.5165C15.7602 18.0063 14.4398 17.7147 13.0989 17.6546L13.072 17.6536H13.071ZM13.071 11.9261V7.34245C14.448 7.2796 15.8037 6.97815 17.0776 6.45152L16.9986 6.48052C17.5536 8.09939 17.8945 9.96523 17.9385 11.9051V11.9261H13.071ZM13.071 6.19855V1.70392C14.4538 2.0089 15.7007 3.39078 16.5867 5.41661C15.5527 5.84658 14.3538 6.12755 13.0999 6.19755L13.071 6.19855ZM15.9247 2.19888C17.103 2.59188 18.2049 3.18446 19.1824 3.95073L19.1594 3.93274C18.7165 4.28071 18.2195 4.60868 17.6956 4.89365L17.6396 4.92165C17.2162 3.92246 16.6341 2.99829 15.9157 2.18488L15.9247 2.19588V2.19888ZM11.925 1.70692V6.19855C10.6916 6.13563 9.47816 5.86168 8.33735 5.38861L8.40934 5.41461C9.29927 3.39478 10.5442 2.0079 11.927 1.70292L11.925 1.70692ZM7.35743 4.91865C6.8154 4.62703 6.29895 4.2902 5.81356 3.91174L5.83756 3.92974C6.78661 3.18595 7.8541 2.60725 8.99529 2.21788L9.07129 2.19488C8.37176 2.98625 7.80177 3.88325 7.38243 4.85266L7.35743 4.91865ZM11.927 7.34145V11.9251H7.05945C7.10345 9.96423 7.44442 8.09839 8.03837 6.34853L7.99938 6.47952C9.24033 6.98895 10.56 7.28021 11.9001 7.34045L11.927 7.34145ZM11.927 13.069V17.6526C10.55 17.7154 9.19431 18.0169 7.92038 18.5435L7.99938 18.5145C7.44442 16.8967 7.10345 15.0298 7.05945 13.09V13.069H11.927ZM11.927 18.7965V23.2911C10.5442 22.9861 9.29727 21.6043 8.41134 19.5784C9.44526 19.1485 10.6442 18.8685 11.8981 18.7985L11.927 18.7965ZM9.07729 22.7962C7.89934 22.4043 6.79742 21.8131 5.81956 21.0483L5.84356 21.0663C6.28652 20.7183 6.78348 20.3904 7.30743 20.1054L7.36343 20.0774C7.78328 21.077 8.3654 22.0003 9.08628 22.8102L9.07729 22.8002V22.7962ZM17.6406 20.0764C18.2205 20.3914 18.7175 20.7183 19.1844 21.0833L19.1604 21.0653C18.2114 21.8091 17.1439 22.3878 16.0027 22.7772L15.9267 22.8002C16.6262 22.0092 17.1962 21.1125 17.6156 20.1434L17.6406 20.0784V20.0764ZM23.3401 11.9261H19.0794C19.0488 9.85719 18.6918 7.80612 18.0215 5.84857L18.0625 5.98656C18.7689 5.61466 19.4376 5.17532 20.0594 4.67467L20.0354 4.69267C22.0085 6.58954 23.1887 9.16413 23.3381 11.8971L23.3401 11.9261ZM4.96163 4.69367C5.53758 5.16163 6.18453 5.5906 6.87047 5.95557L6.93546 5.98756C6.32252 7.75442 5.95355 9.79124 5.91855 11.9101V11.9261H1.65691C1.80059 9.1849 2.98044 6.60072 4.95763 4.69667L4.96163 4.69367ZM1.65791 13.07H5.91855C5.9492 15.1388 6.30623 17.1899 6.97646 19.1475L6.93546 19.0095C6.18453 19.4084 5.53858 19.8374 4.93863 20.3214L4.96263 20.3034C2.98953 18.4065 1.80926 15.8319 1.65991 13.099L1.65891 13.071L1.65791 13.07Z" fill="#7A7AFF"/>
</svg>
