<svg width="33" height="33" viewBox="0 0 33 33" fill="none" xmlns="http://www.w3.org/2000/svg">
<mask id="mask0_3779_1780" style="mask-type:alpha" maskUnits="userSpaceOnUse" x="0" y="0" width="33" height="33">
<rect x="0.5" y="0.5" width="32" height="32" fill="#D9D9D9"/>
</mask>
<g mask="url(#mask0_3779_1780)">
<path d="M16.4743 26.3211C15.3991 25.5279 14.2435 24.9151 13.0076 24.4826C11.7717 24.0502 10.4914 23.8339 9.1666 23.8339C8.35293 23.8339 7.5538 23.9241 6.7692 24.1044C5.98458 24.2847 5.22817 24.5501 4.49997 24.9005C4.02477 25.1193 3.57263 25.0869 3.14357 24.8031C2.71452 24.5193 2.5 24.1176 2.5 23.598V9.14682C2.5 8.85964 2.57607 8.59425 2.7282 8.35065C2.88033 8.10705 3.09144 7.9297 3.36153 7.81858C4.26409 7.37927 5.20468 7.0498 6.1833 6.83015C7.16192 6.61048 8.15636 6.50065 9.1666 6.50065C10.464 6.50065 11.7273 6.68442 12.9563 7.05195C14.1854 7.41948 15.3666 7.93658 16.4999 8.60325V23.916C17.6247 23.2049 18.8115 22.6801 20.0602 22.3417C21.3089 22.0032 22.5666 21.834 23.8333 21.834C24.5991 21.834 25.2969 21.8814 25.9268 21.9763C26.5567 22.0711 27.2862 22.2476 28.1153 22.5058C28.2093 22.5314 28.2969 22.5335 28.3781 22.5122C28.4593 22.4908 28.4999 22.4203 28.4999 22.3006V7.32632C28.7307 7.3947 28.9559 7.47076 29.1756 7.55452C29.3952 7.63827 29.6093 7.7434 29.8178 7.86988C30.0452 7.981 30.2157 8.14338 30.3294 8.35705C30.4431 8.57074 30.4999 8.79981 30.4999 9.04425V23.5723C30.4999 24.092 30.279 24.4916 29.8371 24.7711C29.3952 25.0505 28.9238 25.0852 28.423 24.8749C27.7033 24.533 26.9576 24.2741 26.1858 24.098C25.414 23.9219 24.6298 23.8339 23.8333 23.8339C22.4999 23.8339 21.2068 24.0437 19.9538 24.4634C18.7008 24.883 17.541 25.5023 16.4743 26.3211ZM19.1666 20.5006V8.50065L25.8333 1.83398V14.5006L19.1666 20.5006Z" fill="#B0B0CA"/>
</g>
</svg>
